<?xml version="1.0" encoding="utf-8"?>
<!-- Generator: Adobe Illustrator 24.2.0, SVG Export Plug-In . SVG Version: 6.00 Build 0)  -->
<svg version="1.1" id="Camada_1" xmlns="http://www.w3.org/2000/svg" xmlns:xlink="http://www.w3.org/1999/xlink" x="0px" y="0px"
	 viewBox="0 0 133.3 56.8" style="enable-background:new 0 0 133.3 56.8;" xml:space="preserve">
<style type="text/css">
	.st0{fill:#2D2D2D;}
	.st1{enable-background:new    ;}
	.st2{fill:#F7CF21;}
</style>
<g>
	<g id="Camada_2_1_">
		<g id="TEXTS">
			<path class="st0" d="M122.6,22.9c2.4,2.4,3.6,5.2-2.9,3.6c-4.3-1.2-8.3-2.9-12.2-5c1.5-0.5,3.1-0.7,4.7-0.6l0,0l0.9,0.1
				c-0.2-0.1-0.5-0.2-0.8-0.3l0,0c-6-2-24.3-3.4-31.4-2.1C75.5,14.9,63.7,7.5,50,8c-1.7,0.1-3.4,0.2-5.1,0.5l0,0
				c-10.8,2-16.5,8.3-16.5,8.3c-5.5,0-12.3-2.4-14.5-5.2c2.3,1.8,24.5-4.7,34.3-5.6c5.5-0.5,9.1-0.8,14.8,1.2
				c4.3,1.5,9.9,4.4,18.5,9.5c4.5-0.3,8.8-0.3,12.8-0.1c20.3,0.7,34.3,5.9,34.3,5.9C126.6,22.8,124.6,22.9,122.6,22.9z"/>
			<path class="st0" d="M62.7,22.5c-13.7,6.1-29.2,1.2-41.3-2l0,0C15.1,18.8,9.8,17.6,6,18.6c0.2-0.1,5.8-3.6,18.8-0.5
				c5.9,1.4,11.8,2.6,17.6,3.5C49.1,22.7,55.9,23,62.7,22.5z"/>
			<path class="st0" d="M6,21.7c2.3-2.3,8.8-1.1,12,0C12.3,26,5.6,24.4,6,21.7z"/>
			<path class="st0" d="M88.4,28.6c6.1-8.2,18.6-6.2,26.7,0.8C105.6,25,94.1,25.4,88.4,28.6z"/>
			<path class="st0" d="M129.1,23.8c1.4,6-1.3,11.7-4.1,16c2.2-9.3,1.6-13.3,0.6-15.7C126.7,24,127.9,23.9,129.1,23.8z"/>
			<path class="st0" d="M63,7.2c-7.5-1.4-11.8-0.5-18.1,1.4l0,0c-10.8,2-16.5,8.3-16.5,8.3c-5.5,0-12.3-2.4-14.5-5.2
				c2.3,1.7,24.5-4.8,34.3-5.7C53.7,5.6,57.3,5.3,63,7.2z"/>
			<path class="st0" d="M122.6,22.9c2.4,2.4,3.6,5.2-2.9,3.6c-4.3-1.2-8.3-2.9-12.2-5c1.5-0.5,3.1-0.7,4.7-0.6l0,0l0.9,0.1l-0.8-0.3
				l0,0c-5.8-2.2-11.9-3.6-18.1-4.2c20.3,0.7,34.3,5.9,34.3,5.9C126.6,22.8,124.6,22.9,122.6,22.9z"/>
			<path class="st0" d="M62.7,22.5c-13.7,6.1-29.2,1.2-41.3-2c7.8,2.1,7.9,0.6,21,1.1C49.1,22.7,55.9,23,62.7,22.5z"/>
			<g class="st1">
				<path class="st2" d="M15.1,46.6H11l-1.3-7.3H9.5l-2,7.3H3.7l4.2-15.7h4.3l1.1,7.5h0.2l2-7.5h3.9L15.1,46.6z"/>
				<path class="st2" d="M28.3,46.6h-8.5L24,30.9h8.7l-1.3,3.9h-4.2l-0.6,2.3h3.6l-0.9,3.3h-3.6L25,43h4.4L28.3,46.6z"/>
				<path class="st2" d="M52.4,30.9l-5.6,15.7h-5.2l0.5-6.9h-0.2l-3,6.9h-5.3l2.6-15.7h4.1l-1.5,8.3h0.3l3.3-8.3h4.2l-1.2,8.3h0.3
					l2.7-8.3H52.4z"/>
				<path class="st2" d="M58.3,38.9c-0.4,1.5-0.5,2.6-0.4,3.2c0.1,0.6,0.5,0.9,1.2,0.9s1.7-0.2,3-0.5l-0.3,3.6
					c-1.5,0.5-2.9,0.7-4.2,0.7c-2,0-3.3-0.7-3.9-2c-0.6-1.3-0.5-3.3,0.2-6c0.7-2.6,1.7-4.6,3-6c1.3-1.4,3.1-2.1,5.3-2.1
					c1.3,0,2.4,0.3,3.4,0.8l-1.7,3.9c-1.2-0.4-2.1-0.7-2.6-0.7c-0.7,0-1.3,0.3-1.8,1C59.1,36.3,58.7,37.4,58.3,38.9z"/>
				<path class="st2" d="M76.5,46.6h-4.2l0.2-2.5h-3l-1.1,2.5h-4l7.1-15.7h6.4L76.5,46.6z M72.7,41.1l0.6-5.6h-0.2l-2.4,5.6H72.7z"
					/>
				<path class="st2" d="M93.9,35.9c-0.3,0.9-0.6,1.7-1.1,2.3s-1,1.2-1.8,1.7l0.3,6.7h-4.7l0-5.7H86l-1.5,5.7h-4.2l4.2-15.7h5.9
					c1.7,0,2.8,0.4,3.4,1.2C94.4,32.9,94.4,34.1,93.9,35.9z M88.5,37.9c0.3-0.3,0.5-0.7,0.6-1.4c0.2-0.7,0.2-1.1,0.1-1.4
					c-0.1-0.3-0.4-0.4-0.8-0.4h-0.7l-0.9,3.5h0.7C87.9,38.3,88.2,38.1,88.5,37.9z"/>
			</g>
		</g>
	</g>
</g>
</svg>
